<svg width="1280" height="720" viewBox="0 0 1280 720" fill="none" xmlns="http://www.w3.org/2000/svg">
<g clip-path="url(#clip0_18839_14656)">
<g clip-path="url(#clip1_18839_14656)">
<g clip-path="url(#clip2_18839_14656)">
<path d="M1300.25 690.996L1290.53 686.695C1320.87 618.088 1307.23 538.462 1255.82 483.861C1244.5 471.836 1231.86 461.532 1218.08 453.004L1222.42 443.191C1237.49 452.335 1251.28 463.506 1263.57 476.565C1317.91 534.287 1332.31 618.476 1300.26 690.994L1300.25 690.996Z" fill="#C8FF00"/>
<path d="M1212.72 652.26L1203.01 647.959C1217.74 614.63 1211.13 575.97 1186.16 549.453C1183.75 546.902 1181.2 544.513 1178.56 542.281L1183.04 532.179C1186.87 535.219 1190.5 538.558 1193.91 542.176C1221.81 571.83 1229.2 615.034 1212.74 652.276L1212.72 652.26Z" fill="#C8FF00"/>
<path d="M1408.91 564.35C1418.03 620.607 1410.71 677.784 1387.75 729.734L1378.03 725.433C1400.17 675.371 1407.22 620.262 1398.44 566.042C1389.44 510.508 1364.21 459.413 1325.48 418.269C1305.31 396.855 1282.35 378.992 1257.03 364.963L1261.35 355.208C1287.97 369.851 1312.08 388.528 1333.22 410.993C1373.4 453.689 1399.57 506.703 1408.91 564.35Z" fill="#C8FF00"/>
<path d="M1209.97 449.633C1212.67 450.701 1215.38 451.824 1218.06 452.988L1207.3 477.297C1141.62 448.281 1065.42 461.324 1013.16 510.525C1000.7 522.255 990.161 535.468 981.637 549.971L957.174 539.154C967.227 521.439 979.863 505.375 994.939 491.179C1052.88 436.632 1136.39 420.766 1209.97 449.651L1209.97 449.633Z" fill="#C8FF00"/>
<path d="M1168.12 538.296C1171.64 539.443 1175.11 540.76 1178.54 542.283L1167.78 566.593C1137.4 553.161 1102.15 559.184 1077.96 581.941C1075.43 584.325 1073.09 586.853 1070.9 589.494L1045.85 578.409C1049.93 572.739 1054.56 567.449 1059.71 562.581C1088.96 535.039 1130.47 526.031 1168.08 538.3L1168.12 538.296Z" fill="#C8FF00"/>
<path d="M1087.14 343.182C1142.71 334.188 1199.19 340.798 1250.91 362.314C1252.95 363.161 1254.99 364.044 1257.03 364.926L1246.27 389.236C1197.63 367.719 1144.09 360.868 1091.4 369.405C1037.44 378.152 987.789 402.65 947.813 440.285C925.815 460.99 907.687 484.732 893.706 511.021L869.358 500.248C884.809 470.715 905.015 444.088 929.597 420.94C973.444 379.675 1027.94 352.766 1087.14 343.163L1087.14 343.182Z" fill="#C8FF00"/>
<path d="M1071.86 248.511C1146.6 236.396 1222.55 245.726 1291.83 275.44C1293.18 276.03 1294.52 276.601 1295.87 277.191L1285.11 301.501C1219.49 272.478 1147.2 263.232 1076.12 274.752C1003.3 286.551 936.297 319.613 882.345 370.409C850.891 400.024 825.274 434.228 806.015 472.248L781.667 461.474C802.394 420.193 830.055 383.126 864.129 351.063C921.951 296.639 993.761 261.169 1071.86 248.529L1071.86 248.511Z" fill="#C8FF00"/>
<path d="M798.624 281.191C870.424 213.624 959.622 169.587 1056.56 153.878C1150.5 138.656 1245.98 150.721 1332.85 188.701C1333.47 188.965 1334.06 189.231 1334.68 189.496L1323.92 213.805C1241.3 177.279 1150.31 165.632 1060.81 180.121C969.122 194.972 884.754 236.619 816.842 300.554C775.95 339.06 742.895 383.702 718.394 433.449L694.067 422.691C720.017 369.686 755.113 322.162 798.624 281.191Z" fill="#C8FF00"/>
<path d="M1057.91 814.835L1066.15 796.175L1074.03 778.382C1137.26 806.32 1210.61 793.767 1260.94 746.389C1277.77 730.555 1290.99 711.912 1300.25 690.996L1319.75 699.626L1336.7 707.118C1325.27 732.931 1308.99 755.923 1288.26 775.427C1226.24 833.809 1135.83 849.295 1057.91 814.835Z" fill="#C8FF00"/>
<path d="M1096.65 727.313L1105.01 708.402L1112.77 690.86C1140.7 703.213 1173.12 697.659 1195.35 676.746C1202.79 669.741 1208.65 661.493 1212.72 652.26L1231.59 660.591L1249.18 668.381C1242.94 682.51 1234.03 695.072 1222.69 705.764C1188.75 737.702 1139.29 746.168 1096.65 727.313Z" fill="#C8FF00"/>
<path d="M962.429 655.889C961.043 701.669 977.58 745.231 1008.96 778.589C1023.4 793.932 1040.03 806.011 1057.91 814.817L1051.04 830.336C1031.14 820.646 1012.64 807.261 996.601 790.216C962.114 753.574 943.938 705.689 945.462 655.378C946.631 616.82 959.249 580.394 981.578 549.94L997.502 556.99C975.804 585.283 963.505 619.545 962.411 655.891L962.429 655.889Z" fill="#C8FF00"/>
<path d="M1042.31 655.783C1043.07 630.637 1053.19 607.222 1070.84 589.445L1087.68 596.892C1086.72 597.711 1085.79 598.546 1084.87 599.416C1069.03 614.337 1059.94 634.537 1059.28 656.294C1058.62 678.051 1066.48 698.765 1081.4 714.608C1086.02 719.51 1091.14 723.772 1096.67 727.329L1089.73 742.983C1082.21 738.41 1075.24 732.823 1069.06 726.233C1051.03 707.088 1041.55 682.067 1042.35 655.779L1042.31 655.783Z" fill="#C8FF00"/>
<path d="M848.363 655.386C849.94 603.178 865.74 553.63 893.766 511.07L909.497 518.03C882.219 558.49 866.834 605.919 865.327 655.879C863.214 725.681 888.411 792.112 936.283 842.944C960.198 868.343 988.345 888.331 1019.22 902.242L1012.36 917.741C979.444 902.929 949.432 881.636 923.942 854.569C872.98 800.433 846.144 729.68 848.379 655.366L848.363 655.386Z" fill="#C8FF00"/>
<path d="M767.863 656.257C765.021 750.063 798.898 839.378 863.227 907.706C896.842 943.413 936.67 971.127 980.404 989.901L973.53 1005.42C972.317 1004.89 971.089 1004.4 969.873 1003.85C925.515 984.222 885.106 955.708 850.868 919.334C783.431 847.704 747.916 754.084 750.897 655.745C752.883 589.721 772.086 526.881 806.166 472.287L821.838 479.217C788.548 531.762 769.775 592.444 767.861 656.239L767.863 656.257Z" fill="#C8FF00"/>
<path d="M734.008 440.349C724.049 456.713 715.152 473.735 707.353 491.41C684.329 543.625 671.777 599.141 670.047 656.433C668.318 713.726 677.506 769.921 697.33 823.413C717.871 878.793 748.99 928.889 789.837 972.266C830.56 1015.51 878.481 1049.52 932.325 1073.36C932.498 1073.43 932.672 1073.5 932.845 1073.58C935.794 1074.88 938.737 1076.12 941.716 1077.36L934.843 1092.88C931.884 1091.66 928.938 1090.39 926.008 1089.09C925.835 1089.02 925.66 1088.93 925.468 1088.86C869.542 1064.1 819.774 1028.79 777.497 983.892C735.094 938.845 702.777 886.84 681.436 829.305C660.84 773.747 651.292 715.406 653.099 655.92C654.905 596.434 667.925 538.774 691.854 484.553C699.653 466.878 708.509 449.824 718.372 433.414L734.026 440.347L734.008 440.349Z" fill="#C8FF00"/>
</g>
</g>
</g>
<defs>
<clipPath id="clip0_18839_14656">
<rect width="1280" height="720" fill="white"/>
</clipPath>
<clipPath id="clip1_18839_14656">
<rect width="1280" height="720" fill="white"/>
</clipPath>
<clipPath id="clip2_18839_14656">
<rect width="957.447" height="973.367" fill="white" transform="matrix(-0.994292 0.106694 0.106694 0.994292 1551.98 100)"/>
</clipPath>
</defs>
</svg>
