<svg width="375" height="812" viewBox="0 0 375 812" fill="none" xmlns="http://www.w3.org/2000/svg">
<g clip-path="url(#clip0_21154_47997)">
<g clip-path="url(#clip1_21154_47997)">
<path d="M376.676 843.203L373.083 841.612C384.3 816.246 379.26 786.805 360.249 766.617C356.065 762.171 351.393 758.361 346.295 755.208L347.902 751.58C353.472 754.961 358.573 759.091 363.117 763.919C383.208 785.261 388.531 816.389 376.682 843.202L376.676 843.203Z" fill="#C8FF00"/>
<path d="M344.315 828.88L340.723 827.29C346.17 814.967 343.726 800.673 334.493 790.869C333.604 789.926 332.661 789.042 331.683 788.217L333.339 784.482C334.756 785.606 336.097 786.841 337.361 788.178C347.676 799.143 350.409 815.117 344.323 828.886L344.315 828.88Z" fill="#C8FF00"/>
<path d="M416.854 796.377C420.226 817.177 417.518 838.317 409.029 857.525L405.437 855.935C413.621 837.425 416.227 817.049 412.983 797.002C409.653 776.469 400.327 757.577 386.006 742.365C378.55 734.448 370.061 727.843 360.699 722.656L362.294 719.049C372.136 724.463 381.051 731.369 388.867 739.675C403.726 755.461 413.399 775.062 416.854 796.377Z" fill="#C8FF00"/>
<path d="M451.771 790.681C456.241 818.289 452.653 846.354 441.382 871.848L437.79 870.258C448.749 845.463 452.242 818.168 447.894 791.315C443.435 763.808 430.943 738.494 411.763 718.12C401.036 706.731 388.721 697.373 375.065 690.203L376.661 686.603C390.795 693.987 403.543 703.652 414.631 715.429C434.354 736.376 447.195 762.4 451.778 790.687L451.771 790.681Z" fill="#C8FF00"/>
<path d="M343.296 753.961C344.296 754.357 345.298 754.772 346.288 755.202L342.31 764.19C318.027 753.462 289.853 758.284 270.528 776.475C265.922 780.812 262.026 785.698 258.874 791.06L249.829 787.061C253.546 780.511 258.218 774.571 263.793 769.323C285.214 749.155 316.094 743.288 343.297 753.968L343.296 753.961Z" fill="#C8FF00"/>
<path d="M327.824 786.744C329.126 787.168 330.407 787.655 331.676 788.218L327.698 797.206C316.465 792.24 303.431 794.467 294.49 802.881C293.552 803.762 292.688 804.697 291.877 805.674L282.618 801.575C284.124 799.479 285.835 797.523 287.74 795.723C298.556 785.54 313.902 782.209 327.811 786.745L327.824 786.744Z" fill="#C8FF00"/>
<path d="M297.882 714.603C318.43 711.277 339.311 713.721 358.435 721.677C359.188 721.99 359.942 722.316 360.697 722.642L356.719 731.63C338.736 723.675 318.938 721.142 299.459 724.298C279.506 727.532 261.149 736.59 246.369 750.505C238.235 758.161 231.532 766.939 226.363 776.659L217.361 772.676C223.073 761.757 230.544 751.912 239.633 743.353C255.845 728.096 275.994 718.146 297.882 714.596L297.882 714.603Z" fill="#C8FF00"/>
<path d="M292.232 679.599C319.866 675.12 347.95 678.57 373.563 689.556C374.062 689.774 374.56 689.985 375.058 690.203L371.08 699.192C346.818 688.461 320.089 685.042 293.81 689.302C266.883 693.664 242.11 705.889 222.162 724.67C210.533 735.619 201.061 748.266 193.94 762.323L184.938 758.34C192.601 743.077 202.829 729.372 215.427 717.517C236.806 697.394 263.357 684.28 292.233 679.606L292.232 679.599Z" fill="#C8FF00"/>
<path d="M191.208 691.682C217.755 666.701 250.735 650.418 286.577 644.61C321.311 638.982 356.612 643.443 388.731 657.485C388.959 657.583 389.18 657.682 389.408 657.779L385.43 666.768C354.882 653.262 321.24 648.956 288.147 654.313C254.247 659.804 223.053 675.203 197.944 698.842C182.824 713.079 170.603 729.585 161.544 747.978L152.549 744C162.144 724.402 175.12 706.831 191.208 691.682Z" fill="#C8FF00"/>
<path d="M251.772 830.222C251.26 847.149 257.374 863.255 268.977 875.589C274.317 881.262 280.466 885.728 287.075 888.984L284.534 894.722C277.177 891.139 270.338 886.19 264.407 879.888C251.656 866.34 244.936 848.635 245.499 830.033C245.931 815.777 250.597 802.309 258.853 791.049L264.74 793.656C256.718 804.117 252.17 816.785 251.766 830.223L251.772 830.222Z" fill="#C8FF00"/>
<path d="M281.308 830.183C281.587 820.886 285.329 812.228 291.854 805.655L298.084 808.409C297.729 808.712 297.382 809.02 297.043 809.342C291.185 814.859 287.825 822.328 287.581 830.372C287.338 838.416 290.244 846.075 295.761 851.933C297.47 853.745 299.363 855.321 301.405 856.636L298.842 862.424C296.06 860.733 293.483 858.668 291.198 856.231C284.532 849.152 281.027 839.901 281.322 830.181L281.308 830.183Z" fill="#C8FF00"/>
<path d="M209.598 830.036C210.181 810.733 216.023 792.413 226.385 776.677L232.202 779.251C222.116 794.21 216.427 811.746 215.87 830.219C215.089 856.027 224.405 880.589 242.105 899.383C250.948 908.774 261.354 916.165 272.769 921.308L270.234 927.039C258.064 921.562 246.967 913.689 237.542 903.682C218.7 883.666 208.777 857.505 209.604 830.029L209.598 830.036Z" fill="#C8FF00"/>
<path d="M179.834 830.358C178.783 865.042 191.309 898.065 215.094 923.329C227.523 936.531 242.248 946.777 258.418 953.719L255.877 959.457C255.428 959.261 254.974 959.079 254.525 958.876C238.124 951.619 223.183 941.077 210.524 927.628C185.59 901.143 172.459 866.529 173.561 830.169C174.296 805.758 181.396 782.523 193.996 762.338L199.791 764.9C187.482 784.328 180.541 806.764 179.834 830.352L179.834 830.358Z" fill="#C8FF00"/>
<path d="M167.317 750.529C163.634 756.579 160.345 762.873 157.461 769.408C148.949 788.714 144.308 809.24 143.668 830.423C143.029 851.607 146.426 872.384 153.756 892.162C161.35 912.638 172.856 931.16 187.959 947.199C203.016 963.187 220.734 975.761 240.642 984.576C240.706 984.603 240.77 984.63 240.834 984.657C241.924 985.137 243.013 985.598 244.114 986.057L241.573 991.795C240.479 991.342 239.39 990.875 238.306 990.394C238.242 990.367 238.177 990.333 238.107 990.306C217.429 981.153 199.027 968.096 183.396 951.497C167.718 934.842 155.77 915.613 147.879 894.341C140.264 873.799 136.734 852.228 137.402 830.234C138.069 808.239 142.883 786.921 151.731 766.873C154.614 760.338 157.889 754.032 161.536 747.965L167.323 750.528L167.317 750.529Z" fill="#C8FF00"/>
</g>
</g>
<defs>
<clipPath id="clip0_21154_47997">
<rect width="375" height="812" fill="white"/>
</clipPath>
<clipPath id="clip1_21154_47997">
<rect width="354.004" height="359.89" fill="white" transform="matrix(-0.994292 0.106694 0.106694 0.994292 469.752 624.689)"/>
</clipPath>
</defs>
</svg>
