<svg xmlns="http://www.w3.org/2000/svg" width="39" height="39" viewBox="0 0 39 39" fill="none">
  <g clip-path="url(#clip0_25122_23466)">
    <path d="M37.8256 23.7458C35.26 33.9604 24.8416 40.1773 14.5536 37.6302C4.26989 35.0833 -1.99092 24.737 0.575218 14.5229C3.13896 4.30717 13.5582 -1.91046 23.8427 0.636388C34.1293 3.18324 40.3899 13.5303 37.8256 23.7458Z" fill="#FF4400"/>
    <path d="M27.663 16.4169C28.0452 13.8794 26.0996 12.5158 23.4396 11.6058L24.3022 8.16888L22.1958 7.64743L21.3556 10.9938C20.8012 10.8566 20.2329 10.7274 19.6673 10.5995L20.5129 7.23086L18.4078 6.70941L17.5441 10.1458C17.0857 10.042 16.6358 9.93978 16.1988 9.83173L16.2009 9.82114L13.2958 9.10081L12.7353 11.3352C12.7353 11.3352 14.2982 11.6908 14.2652 11.7131C15.1185 11.9247 15.2724 12.4853 15.2468 12.9297L14.2641 16.8452C14.3228 16.8603 14.3988 16.8812 14.483 16.9151C14.4126 16.8976 14.3377 16.8788 14.2606 16.8603L12.883 22.3448C12.7785 22.6022 12.5137 22.9886 11.9174 22.8419C11.9385 22.8721 10.3854 22.4624 10.3854 22.4624L9.34009 24.8567L12.0814 25.5355C12.591 25.6623 13.0916 25.7947 13.5833 25.9203L12.7121 29.3967L14.8164 29.9181L15.6796 26.4788C16.255 26.6335 16.8129 26.7767 17.359 26.9115L16.4988 30.3347L18.6054 30.8561L19.4774 27.3864C23.0702 28.0611 25.7718 27.7889 26.9084 24.5625C27.8249 21.9645 26.863 20.4659 24.9729 19.4884C26.3492 19.1733 27.3865 18.2739 27.663 16.4169ZM22.85 23.12C22.1982 25.7182 17.794 24.3136 16.3652 23.9611L17.522 19.356C18.95 19.7095 23.53 20.4103 22.85 23.12ZM23.5006 16.3796C22.907 18.7429 19.2406 17.5419 18.0513 17.2474L19.0998 13.0706C20.2889 13.3651 24.1196 13.9146 23.5006 16.3796Z" fill="white"/>
  </g>
  <defs>
    <clipPath id="clip0_25122_23466">
      <rect width="38.4" height="38.4" fill="white"/>
    </clipPath>
  </defs>
</svg>