<svg width="42" height="42" viewBox="0 0 42 42" fill="none" xmlns="http://www.w3.org/2000/svg">
<rect width="41.6327" height="41.6327" rx="20.8163" fill="#05050A"/>
<g clip-path="url(#clip0_18351_97638)">
<path d="M21.0005 15.1572C24.3248 15.1575 27.02 17.8506 27.02 21.1729C27.02 22.6105 26.5147 23.9289 25.6753 24.9619L27.978 32H14.022L16.3247 24.9619C15.4853 23.9289 14.98 22.6105 14.98 21.1729C14.98 17.8505 17.6759 15.1572 21.0005 15.1572ZM21.0005 17.9902C19.2416 17.9902 17.815 19.4155 17.8149 21.1729C17.8149 22.3907 18.4999 23.4493 19.5063 23.9844L19.6099 24.0391L17.9321 29.167H24.0679L22.3901 24.0391L22.4937 23.9844C23.5001 23.4493 24.1851 22.3908 24.1851 21.1729C24.185 19.4156 22.7592 17.9905 21.0005 17.9902ZM21.0024 8.00293L22.8999 10.4893L25.3462 8.94922L26.019 11.542L28.8589 10.9463L26.2759 15.1621C24.8679 13.9267 23.0224 13.1774 21.0024 13.1768H20.9976C18.9775 13.1774 17.1321 13.9267 15.7241 15.1621L13.1411 10.9463L15.981 11.542L16.6538 8.94922L19.1001 10.4893L21.0005 8L21.0024 8.00293Z" fill="white"/>
</g>
<path d="M21 15.1572C24.3843 15.1572 27.1279 17.8505 27.1279 21.1729C27.1279 22.6106 26.6134 23.9289 25.7588 24.9619L28.1035 32H13.8965L16.2412 24.9619C15.3866 23.9289 14.8721 22.6105 14.8721 21.1729C14.8721 17.8505 17.6157 15.1572 21 15.1572ZM21 17.9902C19.2095 17.9902 17.7578 19.4155 17.7578 21.1729C17.7578 22.3907 18.455 23.4494 19.4795 23.9844L19.585 24.0391L17.877 29.166H24.123L22.415 24.0391L22.5205 23.9844C23.545 23.4494 24.2422 22.3907 24.2422 21.1729C24.2422 19.4155 22.7905 17.9902 21 17.9902ZM21.002 8.00293H21.0029L22.9336 10.4893L25.4238 8.94922L26.1094 11.542L29 10.9463L26.3711 15.1621C24.9379 13.9267 23.0592 13.1775 21.0029 13.1768H20.9971C18.9408 13.1775 17.0621 13.9267 15.6289 15.1621L13 10.9463L15.8906 11.542L16.5762 8.94922L19.0664 10.4893L21 8L21.002 8.00293Z" fill="#0085FF"/>
<defs>
<clipPath id="clip0_18351_97638">
<rect width="24" height="24" fill="white" transform="translate(9 8)"/>
</clipPath>
</defs>
</svg>
