<svg width="96" height="24" viewBox="0 0 96 24" fill="none" xmlns="http://www.w3.org/2000/svg">
    <path d="M36.8054 17.4993C35.3646 17.4993 34.1964 17.1923 33.3397 16.6166C32.522 16.0026 32.0547 15.1199 32.0547 13.9686H34.7026C34.7805 14.9664 35.4814 15.4653 36.7665 15.4653C37.2338 15.4653 37.6621 15.3886 37.9736 15.1967C38.3241 15.0048 38.4799 14.7361 38.4799 14.3524C38.4799 14.1221 38.363 13.8918 38.1683 13.7383C37.9736 13.5464 37.74 13.4313 37.5453 13.3545C37.3116 13.3162 36.9222 13.201 36.3381 13.0475C36.2992 13.0475 36.2603 13.0475 36.2603 13.0091C36.2603 13.0091 36.2603 13.0091 36.2213 13.0091C36.1824 13.0091 36.1824 13.0091 36.1434 13.0091C35.7151 12.894 35.3257 12.8173 35.0531 12.7021C34.7416 12.6254 34.4301 12.5102 34.0407 12.3184C33.6902 12.1648 33.3787 11.973 33.145 11.7811C32.9503 11.5508 32.7556 11.2822 32.5999 10.9751C32.4441 10.6297 32.3662 10.246 32.3662 9.82381C32.3662 8.74924 32.7556 7.94331 33.5344 7.40603C34.3132 6.86874 35.3257 6.6001 36.6107 6.6001C37.8179 6.6001 38.7914 6.86874 39.5702 7.40603C40.3101 7.98169 40.7384 8.74924 40.7774 9.82381H38.2073C38.1683 9.44004 37.9736 9.09464 37.7011 8.90275C37.3895 8.67248 37.0001 8.55735 36.4939 8.55735C36.0656 8.55735 35.6762 8.63411 35.4036 8.82599C35.131 9.01788 34.9752 9.24815 34.9752 9.55517C34.9752 9.86219 35.131 10.1308 35.4814 10.2843C35.8319 10.4379 36.455 10.5914 37.3895 10.8216C37.9736 10.9368 38.4409 11.0903 38.8303 11.2054C39.2197 11.3205 39.5702 11.5124 39.9596 11.7811C40.349 12.0113 40.6605 12.3184 40.8552 12.7021C41.0499 13.0859 41.1278 13.5464 41.1278 14.0837C41.1278 15.1583 40.7384 16.0026 39.9207 16.6166C39.1029 17.2307 38.0515 17.4993 36.8054 17.4993ZM42.1013 19.7252V17.8831H42.9191C43.5811 17.8831 43.9315 17.6145 43.9315 17.0772C43.9315 16.8469 43.7758 16.3096 43.4642 15.5421L41.2057 9.74706H43.7758L44.7882 12.9708L45.2944 14.6978C45.4502 14.007 45.606 13.4313 45.7617 12.9708L46.7352 9.74706H49.1885L46.5405 17.3842C46.229 18.2669 45.8786 18.8809 45.4502 19.2263C45.0219 19.5717 44.4378 19.7252 43.6589 19.7252H42.1013ZM49.6947 17.2691V9.74706H52.0311V10.7832H52.0701C52.6931 9.97732 53.4719 9.55517 54.4455 9.55517C55.2632 9.55517 55.9252 9.82381 56.3925 10.3227C56.8598 10.86 57.0934 11.5508 57.0934 12.3951V17.2691H54.6791V12.8556C54.6791 12.4719 54.5623 12.1265 54.3676 11.8962C54.1729 11.6659 53.8613 11.5508 53.4719 11.5508C53.0825 11.5508 52.771 11.6659 52.4984 11.973C52.2648 12.28 52.148 12.6637 52.148 13.1243V17.2691H49.6947ZM60.7149 15.1967C60.9875 15.5804 61.3769 15.8107 61.922 15.8107C62.4282 15.8107 62.8177 15.5804 63.0902 15.1967C63.4018 14.7745 63.5186 14.2372 63.5186 13.5464C63.5186 12.8173 63.4018 12.28 63.0902 11.8578C62.8177 11.4357 62.4282 11.2438 61.922 11.2438C61.3769 11.2438 60.9875 11.4357 60.7149 11.8578C60.4423 12.28 60.2865 12.8173 60.2865 13.5464C60.2865 14.2372 60.4423 14.7745 60.7149 15.1967ZM64.8426 16.3864C64.1027 17.1155 63.1292 17.4993 61.922 17.4993C60.7149 17.4993 59.7414 17.1155 58.9625 16.3864C58.2227 15.6188 57.8333 14.6594 57.8333 13.5464C57.8333 12.3951 58.2227 11.4357 58.9625 10.6681C59.7414 9.93894 60.7149 9.55517 61.922 9.55517C63.1292 9.55517 64.1027 9.93894 64.8426 10.6681C65.6214 11.4357 65.9718 12.3951 65.9718 13.5464C65.9718 14.6594 65.6214 15.6188 64.8426 16.3864ZM66.7896 17.2691V9.74706H69.126V10.7832H69.1649C69.7491 9.97732 70.5279 9.55517 71.5403 9.55517C72.3581 9.55517 72.9811 9.82381 73.4484 10.3227C73.9546 10.86 74.1883 11.5508 74.1883 12.3951V17.2691H71.735V12.8556C71.735 12.4719 71.6571 12.1265 71.4624 11.8962C71.2288 11.6659 70.9562 11.5508 70.5668 11.5508C70.1774 11.5508 69.8269 11.6659 69.5933 11.973C69.3596 12.28 69.2039 12.6637 69.2039 13.1243V17.2691H66.7896ZM75.3954 19.7252V17.8831H76.2132C76.8752 17.8831 77.2256 17.6145 77.2256 17.0772C77.2256 16.8469 77.0699 16.3096 76.7583 15.5421L74.4998 9.74706H77.0699L78.0823 12.9708L78.5496 14.6978H78.5885C78.7443 14.007 78.8611 13.4313 79.0558 12.9708L80.0293 9.74706H82.4436L79.8346 17.3842C79.5231 18.2669 79.1726 18.8809 78.7443 19.2263C78.316 19.5717 77.7319 19.7252 76.953 19.7252H75.3954ZM82.9888 17.2691V9.74706H85.3252V10.8216H85.3642C85.8704 9.97732 86.6492 9.55517 87.6617 9.55517C88.6741 9.55517 89.3751 9.97732 89.8034 10.86H89.8423C90.4264 9.97732 91.2053 9.55517 92.2177 9.55517C93.0744 9.55517 93.6974 9.78543 94.1647 10.3227C94.5931 10.8216 94.8267 11.5124 94.8267 12.3951V17.2691H92.3735V12.8173C92.3735 11.973 92.023 11.5508 91.3221 11.5508C90.9327 11.5508 90.6601 11.6659 90.4264 11.973C90.2317 12.2416 90.1149 12.587 90.1149 13.0475V17.2691H87.7006V12.8173C87.7006 11.973 87.3501 11.5508 86.6103 11.5508C86.2598 11.5508 85.9483 11.6659 85.7536 11.973C85.5199 12.2416 85.4031 12.587 85.4031 13.0475V17.2691H82.9888Z" fill="white"/>
    <path d="M15.2276 9.0899H11.94L12.898 5.31116L8.77344 9.06969V11.3935L15.2276 11.4036V9.0899ZM11.103 18.6883L15.2276 14.9298V12.5958H8.77344V14.9096H12.0509L11.103 18.6883Z" fill="white"/>
    <path fill-rule="evenodd" clip-rule="evenodd" d="M13.2629 0.0676611C19.8606 0.764809 24.6295 6.67541 23.9323 13.2629C23.2352 19.8606 17.3246 24.6295 10.7371 23.9323C4.13941 23.2352 -0.629487 17.3246 0.0676611 10.7371C0.764809 4.13941 6.67541 -0.629487 13.2629 0.0676611ZM13.0003 2.57335C7.81711 2.01765 3.11895 5.8166 2.57335 10.9997C2.01765 16.1829 5.8166 20.8811 10.9997 21.4266C16.1829 21.9823 20.8811 18.1834 21.4266 13.0003C21.9823 7.81711 18.1834 3.11895 13.0003 2.57335Z" fill="white"/>
</svg>
