<svg width="109" height="36" viewBox="0 0 109 36" fill="none" xmlns="http://www.w3.org/2000/svg">
<path d="M88.3716 29.1715H94.1458L88.4569 21.4035L93.1815 15.865L98.7315 28.9439L98.2764 30.1105C98.0488 30.7176 97.7738 31.1823 97.4515 31.5048C97.1291 31.8462 96.6076 32.017 95.887 32.017C95.6595 32.017 95.4035 31.9885 95.119 31.9316C94.8535 31.8937 94.607 31.8368 94.3795 31.7609L93.8675 35.6876C94.2088 35.7824 94.607 35.8583 95.0621 35.9152C95.5362 35.9721 95.9913 36.0006 96.4275 36.0006C97.3187 36.0006 98.0867 35.8962 98.7315 35.6876C99.3952 35.4789 99.9641 35.1659 100.438 34.7486C100.931 34.3502 101.348 33.857 101.69 33.269C102.05 32.6999 102.372 32.0454 102.657 31.3056L109 15.0014H104.051L101.235 24.1067H101.149L97.9919 15.0014H93.9183L93.9183 15.0013H88.2578L83.7351 20.7491H83.6498V7.66016H78.9564V29.1715H83.6498V22.371H83.7351L88.3716 29.1715Z" fill="white"/>
<path d="M77.4357 22.0295C77.4357 23.0159 77.284 23.9644 76.9806 24.8749C76.6771 25.7855 76.2315 26.5917 75.6437 27.2935C75.0748 27.9764 74.3731 28.5266 73.5387 28.9439C72.7044 29.3612 71.7562 29.5699 70.6943 29.5699C69.7461 29.5699 68.8454 29.3802 67.992 29.0008C67.1577 28.6024 66.5129 28.0428 66.0578 27.322H66.0009V29.1715H61.7058V7.66016H66.3707V16.5094H66.4276C66.8258 16.0352 67.3852 15.5989 68.1058 15.2005C68.8264 14.8022 69.7082 14.603 70.7512 14.603C71.7752 14.603 72.6949 14.8022 73.5103 15.2005C74.3447 15.5989 75.0463 16.1395 75.6152 16.8224C76.2031 17.5053 76.6487 18.302 76.9521 19.2126C77.2745 20.1041 77.4357 21.0431 77.4357 22.0295ZM72.9414 22.0295C72.9414 21.5743 72.8656 21.1285 72.7139 20.6922C72.5811 20.2559 72.3725 19.8765 72.0881 19.554C71.8036 19.2126 71.4528 18.9375 71.0356 18.7288C70.6184 18.5202 70.1349 18.4158 69.5849 18.4158C69.054 18.4158 68.5799 18.5202 68.1627 18.7288C67.7455 18.9375 67.3852 19.2126 67.0818 19.554C66.7974 19.8955 66.5698 20.2843 66.3991 20.7206C66.2474 21.1569 66.1716 21.6027 66.1716 22.058C66.1716 22.5132 66.2474 22.959 66.3991 23.3953C66.5698 23.8316 66.7974 24.2205 67.0818 24.5619C67.3852 24.9034 67.7455 25.1785 68.1627 25.3871C68.5799 25.5958 69.054 25.7001 69.5849 25.7001C70.1349 25.7001 70.6184 25.5958 71.0356 25.3871C71.4528 25.1785 71.8036 24.9034 72.0881 24.5619C72.3725 24.2205 72.5811 23.8316 72.7139 23.3953C72.8656 22.9401 72.9414 22.4848 72.9414 22.0295Z" fill="white"/>
<path d="M54.9774 29.1716V27.2082H54.9205C54.7498 27.5307 54.5223 27.8342 54.2378 28.1188C53.9723 28.4033 53.65 28.6499 53.2707 28.8586C52.9104 29.0672 52.5027 29.238 52.0476 29.3707C51.6114 29.5035 51.1468 29.5699 50.6538 29.5699C49.7056 29.5699 48.8997 29.3992 48.236 29.0578C47.5912 28.7163 47.0603 28.28 46.6431 27.7489C46.2449 27.1987 45.9509 26.5822 45.7613 25.8993C45.5906 25.1975 45.5053 24.4861 45.5053 23.7653V15.0014H50.1987V22.684C50.1987 23.0824 50.2271 23.4618 50.284 23.8222C50.3409 24.1826 50.4452 24.5051 50.5969 24.7896C50.7676 25.0742 50.9856 25.3018 51.2511 25.4725C51.5166 25.6243 51.8674 25.7002 52.3036 25.7002C53.119 25.7002 53.7353 25.3966 54.1525 24.7896C54.5886 24.1826 54.8067 23.4712 54.8067 22.6556V15.0014H59.4716V29.1716H54.9774Z" fill="white"/>
<path d="M44.7858 15.229C44.7858 16.4051 44.5677 17.401 44.1315 18.2167C43.6954 19.0134 43.1075 19.6583 42.368 20.1515C41.6284 20.6448 40.7751 21.0052 39.8079 21.2328C38.8408 21.4604 37.8358 21.5743 36.7928 21.5743H34.375V29.1715H29.511V9.02597H36.9066C38.0065 9.02597 39.0305 9.13978 39.9786 9.36741C40.9457 9.57608 41.7801 9.92701 42.4817 10.4202C43.2023 10.8945 43.7618 11.5299 44.16 12.3266C44.5772 13.1044 44.7858 14.0718 44.7858 15.229ZM39.9217 15.2574C39.9217 14.7832 39.8269 14.3943 39.6373 14.0908C39.4476 13.7873 39.1916 13.5502 38.8693 13.3795C38.5469 13.2087 38.1771 13.0949 37.7599 13.038C37.3617 12.9811 36.9445 12.9526 36.5084 12.9526H34.375V17.7045H36.423C36.8781 17.7045 37.3143 17.6665 37.7315 17.5907C38.1487 17.5148 38.5185 17.382 38.8408 17.1923C39.1822 17.0026 39.4476 16.756 39.6373 16.4525C39.8269 16.13 39.9217 15.7317 39.9217 15.2574Z" fill="white"/>
<path d="M9.54883 8.69922C13.5883 8.69922 16.8633 11.9726 16.8633 16.0107C16.8633 17.7581 16.2494 19.3606 15.2295 20.6162L18.0273 29.1709H1.07031L3.86816 20.6162C2.84826 19.3606 2.23438 17.7581 2.23438 16.0107C2.23441 11.9726 5.50939 8.69922 9.54883 8.69922ZM9.34961 12.1484C7.3051 12.2521 5.67976 13.9416 5.67969 16.0107C5.67969 17.4911 6.51144 18.7775 7.73438 19.4277L7.85938 19.4951L5.82129 25.7266H13.2764L11.2383 19.4951L11.3633 19.4277C12.5862 18.7775 13.418 17.4911 13.418 16.0107C13.4179 13.8748 11.6859 12.1426 9.54883 12.1426L9.34961 12.1484ZM9.55078 0.00292969L9.55176 0.00390625L11.8574 3.02539L14.8291 1.1543L15.6475 4.30566L19.0977 3.58105L15.96 8.70508C14.2492 7.20337 12.0063 6.29274 9.55176 6.29199H9.5459C7.09138 6.29273 4.84844 7.20336 3.1377 8.70508L0 3.58105L3.4502 4.30566L4.26855 1.1543L7.24023 3.02539L9.54883 0L9.55078 0.00292969Z" fill="#C8FF00"/>
</svg>
